<?xml version="1.0" encoding="UTF-8" standalone="no"?>
<!DOCTYPE svg PUBLIC "-//W3C//DTD SVG 1.1//EN" "http://www.w3.org/Graphics/SVG/1.1/DTD/svg11.dtd">
<svg width="100%" height="100%" viewBox="0 0 800 800" version="1.1" xmlns="http://www.w3.org/2000/svg" xmlns:xlink="http://www.w3.org/1999/xlink" xml:space="preserve" xmlns:serif="http://www.serif.com/" style="fill-rule:evenodd;clip-rule:evenodd;stroke-linejoin:round;stroke-miterlimit:2;">
    <g transform="matrix(3.02939,0,0,3.02939,437.546,470.845)">
        <path d="M0,-63.04C1.523,-65.779 3.362,-68.379 5.656,-70.769L5.025,-71.4C1.931,-68.626 -0.237,-66.192 -1.716,-64.006C-3.72,-64.579 -5.891,-63.63 -6.775,-61.674C-7.604,-59.839 -7.02,-57.734 -5.495,-56.552C-6.405,-54.188 -7.137,-51.736 -7.739,-49.232C-10.087,-49.115 -12.131,-47.405 -12.56,-44.992C-12.982,-42.618 -11.697,-40.349 -9.594,-39.401C-9.977,-36.887 -10.321,-34.381 -10.681,-31.917C-12.394,-31.556 -13.782,-30.171 -14.035,-28.337C-14.273,-26.608 -13.437,-24.983 -12.041,-24.122C-12.616,-21.482 -13.324,-18.876 -14.208,-16.333C-15.454,-16.273 -16.626,-15.554 -17.184,-14.342C-17.783,-13.04 -17.501,-11.558 -16.588,-10.565C-17.365,-8.951 -18.215,-7.368 -19.177,-5.839C-19.592,-5.177 -20.171,-4.35 -20.844,-3.433C-21.997,-3.815 -23.316,-3.487 -24.14,-2.496C-25.014,-1.445 -25.047,0.015 -24.338,1.104C-26.344,3.618 -28.401,6.085 -29.684,7.562L-28.886,8.36C-27.238,6.944 -25.023,4.688 -22.863,2.288C-21.685,2.729 -20.31,2.418 -19.46,1.396C-18.627,0.395 -18.554,-0.979 -19.161,-2.048C-17.871,-3.651 -16.782,-5.125 -16.108,-6.237C-15.467,-7.294 -14.875,-8.376 -14.308,-9.471C-12.912,-9.366 -11.534,-10.112 -10.914,-11.459C-10.284,-12.829 -10.638,-14.388 -11.667,-15.378C-10.648,-18.041 -9.814,-20.775 -9.165,-23.551C-7.344,-23.829 -5.84,-25.252 -5.575,-27.17C-5.324,-28.989 -6.267,-30.687 -7.797,-31.506C-7.507,-33.992 -7.214,-36.494 -6.878,-38.99C-4.68,-39.251 -2.81,-40.894 -2.403,-43.186C-1.992,-45.498 -3.203,-47.702 -5.206,-48.693C-4.677,-51.07 -4.034,-53.403 -3.251,-55.679C-1.496,-55.528 0.241,-56.462 1.008,-58.158C1.784,-59.878 1.313,-61.827 0,-63.04" style="fill:rgb(252,209,22);fill-rule:nonzero;"/>
    </g>
    <g transform="matrix(3.02939,0,0,3.02939,489.653,589.996)">
        <path d="M0,12.368C1.313,4.604 2.489,-5.466 1.347,-9.96C0.413,-15.406 1.24,-19.679 2.62,-22.889C-8.793,-20.517 -18.466,-20.299 -26.084,-20.919C-29.75,-21.253 -34.983,-21.924 -40.044,-23.26C-40.044,-23.26 -37.679,-21.135 -31.097,-19.081C-37.831,-8.677 -49.834,7.584 -60.274,10.515C-60.387,10.547 -62.792,14.533 -68.02,16.462C-69.303,16.935 -70.752,17.191 -72.162,17.317C-78.742,17.903 -85.231,19.248 -91.419,21.562C-91.822,21.713 -92.238,21.87 -92.654,22.028C-67.319,35.628 -33.22,35.117 -1.656,20.26C-1.115,18.251 -0.563,15.695 0,12.368" style="fill:rgb(206,17,38);fill-rule:nonzero;"/>
    </g>
    <g transform="matrix(3.02939,0,0,3.02939,171.075,83.5578)">
        <path d="M0,180.669C4.891,177.851 9.467,174.868 11.417,172.476C21.444,161.982 32.222,166.047 32.258,166.011C39.754,158.56 38.719,147.074 46.299,140.94C45.661,134.835 42.962,120.094 58.74,113.835C66.559,104.27 65.447,84.976 67.426,73.554C70.635,71.88 73.89,69.389 73.89,69.389C70.985,70.228 68.483,70.631 67.315,70.791C56.772,71.856 45.51,65.864 45.51,65.864C45.51,65.864 24.301,70.532 12.99,71.767C13.142,73.301 13.198,75.174 12.174,76.197C11.103,77.269 9.458,77.759 9.057,81.342C8.997,81.877 8.417,82.203 7.944,81.944C7.495,81.698 6.221,79.979 7.849,76.89C6.089,78.612 2.034,82.12 0.62,82.163C-1.336,80.615 -2.729,77.793 -2.817,76.227C2.078,70.369 1.248,66.925 6.966,65.039C6.966,65.039 8.315,64.553 10.53,63.766C19.218,60.678 41.228,52.968 47.317,51.912C52.02,51.096 66.528,50.742 66.528,50.742C66.528,50.742 79.597,45.44 88.884,51.806C91.102,50.686 92.984,48.689 94.381,46.834C95.802,44.948 96.809,42.792 97.481,40.528C98.528,36.998 101.282,33.218 105.661,31.266C112.768,28.099 128.45,35.129 123.828,48.98L122.055,53.409C121.661,54.448 121.063,54.924 120.192,55.111C119.532,55.253 118.837,55.519 118.794,56.455C118.768,57.014 118.669,59.325 118.471,60.811C118.329,61.871 117.407,61.663 116.396,61.312C116.118,61.215 115.809,61.283 115.597,61.488C115.597,61.488 108.565,66.963 106.857,65.969C104.738,64.735 102.082,62.025 99.628,57.636C99.628,57.636 100.18,63.95 105.888,67.873C106.54,68.321 107.388,68.405 108.114,68.091C111.25,66.734 112.319,66.008 114.109,65.113C116.469,63.934 123.733,66.525 126.187,69.985C126.418,70.31 135.115,69.436 141.969,75.493C144.94,73.534 155.279,65.624 161.78,55.937C160.722,54.792 159.505,53.3 159.713,51.841C159.927,50.341 160.948,48.961 159.116,45.856C158.843,45.392 159.111,44.782 159.645,44.706C160.151,44.633 162.203,45.242 162.756,48.69C162.982,47.217 163.488,44.722 164.096,42.782C163.288,41.565 162.439,40.369 161.547,39.194C132.863,1.409 71.117,0 23.633,36.047C-23.851,72.094 -39.091,131.946 -10.407,169.731C-7.31,173.81 -3.808,177.439 0,180.669" style="fill:rgb(0,43,127);fill-rule:nonzero;"/>
    </g>
    <g transform="matrix(3.02939,0,0,3.02939,689.702,628.646)">
        <path d="M0,-123.28C-0.181,-122.963 -0.383,-122.637 -0.62,-122.297C-0.62,-122.297 -13.209,-102.111 -23.593,-93.276C-37.003,-92.161 -47.421,-92.46 -59.616,-96.55C-60.364,-100.512 -61.733,-103.664 -61.733,-103.664C-61.351,-100.819 -61.863,-97.326 -62.12,-95.869C-63.828,-88.823 -70.476,-86.427 -70.476,-86.427C-70.476,-86.427 -78.119,-78.415 -85.349,-62.694C-60.897,-61.059 -43.665,-49.083 -43.518,-48.977C-42.073,-47.93 -40.225,-46.909 -39.937,-43.757C-39.673,-41.984 -39.587,-39.501 -40.398,-36.73C-40.782,-35.418 -41.583,-34.178 -42.179,-32.894C-48.05,-20.248 -51.754,-8.73 -53.955,0C-50.476,-2.172 -47.045,-4.51 -43.692,-7.056C-3.009,-37.94 14.001,-86.297 0,-123.28" style="fill:rgb(206,17,38);fill-rule:nonzero;"/>
    </g>
</svg>
